<?xml version="1.0"?>
<svg version="1.1" xmlns="http://www.w3.org/2000/svg" width="400" height="200" style="border: dashed 2px #aaa"><path fill="#000000" d="M23.97,105.655l8.97,0l0,3.12l-8.97,0l0,9.165l3.9,0.78l0,2.34l-11.31,0l0-2.34l3.315-0.78l0-21.06l-3.315-0.78l0-2.145l7.41-0.195l11.895,0l0,6.435l-2.535,0l-0.975-3.315l-8.385,0l0,8.775z M44.0004,93.955c0-1.755,1.17-2.73,2.535-2.73c1.56,0,2.535,0.78,2.535,2.73c0,1.755-1.365,2.73-2.535,2.73c-1.56,0-2.535-0.975-2.535-2.73z M51.6054,118.915l0,2.145l-10.14,0l0-2.145l3.315-0.975l0-14.43l-3.315-0.78l0-2.145l7.215-0.195l0,17.55z M67.4238,118.915l0,2.145l-10.803,0l0-2.145l3.315-0.975l0-23.79l-3.315-0.78l0-2.145l7.293-0.195l0,26.91z M74.3892,93.955c0-1.755,1.17-2.73,2.535-2.73c1.56,0,2.535,0.78,2.535,2.73c0,1.755-1.365,2.73-2.535,2.73c-1.56,0-2.535-0.975-2.535-2.73z M81.9942,118.915l0,2.145l-10.14,0l0-2.145l3.315-0.975l0-14.43l-3.315-0.78l0-2.145l7.215-0.195l0,17.55z M93.6396,100.39l0.312,2.184c1.17-1.092,3.237-2.574,5.928-2.574c5.655,0,8.385,4.095,8.385,10.14c0,6.63-3.315,11.31-10.53,11.31c-1.287,0-2.457-0.234-3.51-0.546l0,6.201l4.095,0.78l0,2.145l-11.115,0l0-2.145l3.12-0.78l0-23.595l-3.315-0.78l0-2.145z M94.2246,105.85l0,11.7s1.17,0.78,4.095,0.78c4.524,0,5.85-3.51,5.85-7.8s-1.56-7.41-5.07-7.41s-4.875,2.73-4.875,2.73z"/><path fill="#0acf3f" d="M122.57,117.94l0-21.06l-3.315-0.78l0-2.145l7.41-0.195l4.095,0c5.85,0,8.97,3.12,8.97,7.995c0,6.045-3.9,9.165-10.53,9.165l-2.535,0l0,7.02l3.315,0.78l0,2.34l-10.725,0l0-2.34z M126.665,107.8l2.535,0c4.29,0,6.435-1.95,6.435-5.46c0-3.12-1.755-5.46-5.07-5.46l-3.9,0l0,10.92z M147.4754,93.955c0-1.755,1.17-2.73,2.535-2.73c1.56,0,2.535,0.78,2.535,2.73c0,1.755-1.365,2.73-2.535,2.73c-1.56,0-2.535-0.975-2.535-2.73z M155.0804,118.915l0,2.145l-10.14,0l0-2.145l3.315-0.975l0-14.43l-3.315-0.78l0-2.145l7.215-0.195l0,17.55z M165.1658,103.12l3.315,14.43l5.109-16.965l3.705-0.585l4.836,17.55l3.12-14.235l-2.73-0.585l0-2.145l8.775-0.195l0,2.34l-2.262,0.39l-4.758,17.94l-4.485,0l-3.705-12.09l-0.936-3.744l-0.819,3.744l-3.705,12.09l-4.485,0l-4.875-17.745l-1.95-0.585l0-2.145l8.775-0.195l0,2.34z M205.6712,100c5.85,0,9.165,4.095,9.165,10.335c0,6.63-3.9,11.115-9.75,11.115s-9.36-3.51-9.36-10.53c0-6.63,4.095-10.92,9.945-10.92z M205.4762,103.12c-3.9,0-5.655,2.535-5.655,7.605c0,4.68,1.56,7.605,5.46,7.605s5.46-2.73,5.46-7.8c0-4.29-1.365-7.41-5.265-7.41z M225.1166,103.12l3.315,14.43l5.109-16.965l3.705-0.585l4.836,17.55l3.12-14.235l-2.73-0.585l0-2.145l8.775-0.195l0,2.34l-2.262,0.39l-4.758,17.94l-4.485,0l-3.705-12.09l-0.936-3.744l-0.819,3.744l-3.705,12.09l-4.485,0l-4.875-17.745l-1.95-0.585l0-2.145l8.775-0.195l0,2.34z M257.237,106.435l-0.195-4.875s4.29-1.56,7.605-1.56c4.524,0,7.215,1.56,7.215,6.045l0,11.895l3.12,0.78l0,2.145l-6.045,0.195l-0.819-2.73c-1.326,1.326-3.666,3.12-6.396,3.12c-3.705,0-5.85-2.145-5.85-5.85c0-4.485,3.51-6.045,8.97-6.045l3.12,0l0-3.12c0-2.34-1.365-3.51-3.705-3.51s-3.939,0.585-3.939,0.585l-0.546,2.925l-2.535,0z M267.962,112.09l-2.73,0c-3.9,0-5.382,0.975-5.382,3.315c0,1.755,1.092,2.925,2.847,2.925c2.925,0,5.265-3.12,5.265-3.12l0-3.12z M286.8224,100.39l0.351,2.847c0.975-1.092,3.237-3.237,5.889-3.237c1.95,0,3.51,0.585,3.51,0.585l-0.195,5.655l-2.535,0l-0.585-2.925c-2.925,0-4.797,1.911-5.655,3.042l0,11.583l3.9,0.975l0,2.145l-11.115,0l0-2.145l3.315-0.975l0-14.43l-3.315-0.78l0-2.145z M315.2378,106.825l-0.585-3.315s-1.56-0.39-3.51-0.39c-3.705,0-5.85,2.34-5.85,7.215c0,5.265,2.34,7.995,6.045,7.995s6.045-2.34,6.045-2.34l1.365,2.34s-3.51,3.12-7.8,3.12c-6.435,0-9.75-4.095-9.75-10.725c0-6.24,3.9-10.725,10.14-10.725c3.51,0,6.63,1.56,6.63,1.56l-0.195,5.265l-2.535,0z M328.3262,118.135l7.956,0l0.546-3.12l2.73,0l0,6.045l-15.6,0l0-2.925l11.388-14.82l-7.332,0l-0.546,2.925l-2.73,0l0-5.85l15.015,0l0,2.925z M350.6186,103.12l4.68,13.65l4.29-13.455l-2.73-0.585l0-2.145l9.243-0.195l0,2.34l-2.535,0.39l-5.538,15.444c-2.067,5.421-4.095,11.856-10.53,11.856c-0.975,0-2.496-0.195-2.496-0.195l0.351-2.73l1.95,0c2.73,0,4.485-2.574,6.201-6.357l-6.981-17.823l-2.34-0.585l0-2.145l9.165-0.195l0,2.34z M380.477,108.19l2.925-4.914l-1.755-0.546l0-2.145l8.58-0.195l0,2.34l-2.769,0.468l-0.039,0l-4.017,5.967l5.031,8.775l0.039,0l2.925,0.975l0,2.145l-5.265,0l-5.577-9.945l-3.393,0l0,6.825l2.535,0.975l0,2.145l-9.75,0l0-2.145l3.315-0.975l0-23.79l-3.315-0.78l0-2.145l7.215-0.195l0,17.16l3.315,0z"/></svg>
